
<svg width="100px" height="98px" viewBox="0 0 100 98" version="1.1" xmlns="http://www.w3.org/2000/svg" xmlns:xlink="http://www.w3.org/1999/xlink">
    <!-- Generator: Sketch 51.2 (57519) - http://www.bohemiancoding.com/sketch -->
    <desc>Created with Sketch.</desc>
    <defs></defs>
    <g id="Page-1" stroke="none" stroke-width="1" fill="none" fill-rule="evenodd">
        <g id="扫码点餐" transform="translate(-79.000000, -1104.000000)" fill-rule="nonzero">
            <g id="预点餐" transform="translate(30.000000, 1065.000000)">
                <g id="Group" transform="translate(49.000000, 39.000000)">
                    <path d="M1.6875,98 C2.7,98 3.375,97.316129 3.375,96.2903226 L3.375,82.6129032 L18.5625,82.6129032 L18.5625,92.016129 C18.5625,95.2645161 21.2625,98 24.46875,98 C27.675,98 30.375,95.2645161 30.375,92.016129 L30.375,82.6129032 L77.625,82.6129032 L77.625,96.2903226 C77.625,97.316129 78.3,98 79.3125,98 C80.325,98 81,97.316129 81,96.2903226 L81,80.9032258 L81,74.0645161 L81,63.8064516 L81,62.0967742 L81,56.9677419 C81,53.2064516 77.9625,50.1290323 74.25,50.1290323 L43.2,50.1290323 C41.85,47.0516129 38.98125,45 35.4375,45 L27,45 C23.625,45 20.5875,47.0516129 19.2375,50.1290323 L8.4375,50.1290323 C3.7125,50.1290323 0,53.8903226 0,58.6774194 L0,62.0967742 L0,63.8064516 L0,74.0645161 L0,80.9032258 L0,96.2903226 C0,97.316129 0.675,98 1.6875,98 Z M27,92.016129 C27,93.383871 25.81875,94.5806452 24.46875,94.5806452 C23.11875,94.5806452 21.9375,93.383871 21.9375,92.016129 L21.9375,80.5612903 L27,79.3645161 L27,92.016129 Z M43.875,53.5483871 L74.25,53.5483871 C76.10625,53.5483871 77.625,55.0870968 77.625,56.9677419 L77.625,62.0967742 L43.875,62.0967742 L43.875,53.5483871 Z M43.875,63.8064516 L77.625,63.8064516 L77.625,72.3548387 L43.875,72.3548387 L43.875,63.8064516 Z M42.1875,75.7741935 L77.625,75.7741935 L77.625,79.1935484 L30.375,79.1935484 L30.375,78.5096774 L39.31875,76.2870968 C39.65625,76.116129 40.1625,76.116129 40.5,75.9451613 L42.1875,75.9451613 L42.1875,75.7741935 Z M27,48.4193548 L35.4375,48.4193548 C35.4375,48.4193548 35.60625,48.4193548 35.60625,48.4193548 L31.21875,52.3516129 L26.83125,48.4193548 C26.83125,48.4193548 27,48.4193548 27,48.4193548 Z M21.9375,53.5483871 C21.9375,51.4967742 23.11875,49.7870968 24.80625,48.9322581 L30.7125,54.2322581 C30.88125,54.4032258 31.05,54.4032258 31.21875,54.4032258 C31.3875,54.4032258 31.55625,54.4032258 31.725,54.2322581 L37.63125,48.9322581 C39.31875,49.7870968 40.5,51.4967742 40.5,53.5483871 L40.5,65.0032258 C39.31875,64.4903226 37.96875,64.1483871 36.61875,64.4903226 L21.9375,68.2516129 L21.9375,53.5483871 Z M19.40625,72.3548387 L37.4625,67.9096774 C38.8125,67.5677419 40.1625,68.4225806 40.5,69.7903226 C40.8375,71.1580645 39.99375,72.5258065 38.64375,72.8677419 L20.5875,77.483871 C19.2375,77.8258065 17.8875,76.9709677 17.55,75.6032258 C17.2125,74.2354839 18.05625,72.6967742 19.40625,72.3548387 Z M3.375,58.6774194 C3.375,55.7709677 5.56875,53.5483871 8.4375,53.5483871 L18.5625,53.5483871 L18.5625,62.0967742 L3.375,62.0967742 L3.375,58.6774194 Z M3.375,63.8064516 L18.5625,63.8064516 L18.5625,69.1064516 C17.04375,69.4483871 15.69375,70.4741935 14.85,71.8419355 C14.68125,72.0129032 14.68125,72.183871 14.68125,72.3548387 L3.375,72.3548387 L3.375,63.8064516 Z M3.375,75.7741935 L14.175,75.7741935 C14.175,75.9451613 14.175,76.116129 14.34375,76.2870968 C14.68125,77.483871 15.1875,78.3387097 16.03125,79.1935484 L3.375,79.1935484 L3.375,75.7741935 Z" id="Shape" fill="#FF9980"></path>
                    <path d="M84.5,43 C93.1111111,43 100,35.8888889 100,27 C100,18.1111111 93.1111111,11 84.5,11 C75.8888889,11 69,18.1111111 69,27 C69,35.8888889 75.8888889,43 84.5,43 Z" id="Shape-Copy" fill="#FFE9E6"></path>
                    <path d="M78,39 C88.5555556,39 97,30.3333333 97,19.5 C97,8.66666667 88.5555556,0 78,0 C67.4444444,0 59,8.66666667 59,19.5 C59,30.3333333 67.4444444,39 78,39 Z M78,4.33333333 C86.2333333,4.33333333 92.7777778,11.05 92.7777778,19.5 C92.7777778,27.95 86.2333333,34.6666667 78,34.6666667 C69.7666667,34.6666667 63.2222222,27.95 63.2222222,19.5 C63.2222222,11.05 69.7666667,4.33333333 78,4.33333333 Z" id="Shape" fill="#FD6541"></path>
                    <path d="M70.3570078,26 C70.8300297,26 71.0665406,26 71.5395625,25.7875 L79.8174453,21.5375 C79.8174453,21.5375 80.0539562,21.325 80.0539562,21.325 C80.2904672,21.325 80.2904672,21.1125 80.5269781,21.1125 C80.5269781,21.1125 80.7634891,20.9 80.7634891,20.6875 C80.7634891,20.475 81,20.475 81,20.2625 C81,20.05 81,20.05 81,19.8375 C81,19.8375 81,19.625 81,19.625 L81,11.125 C81,9.85 80.0539562,9 78.6348906,9 C77.215825,9 76.2697812,9.85 76.2697812,11.125 L76.2697812,18.35 L69.1744531,21.9625 C67.9918984,22.6 67.7553875,23.875 68.2284093,24.9375 C68.7014312,25.575 69.410964,26 70.3570078,26 Z" id="Shape" fill="#FD6140"></path>
                    <path d="M31,43 C35.9090909,43 40,38.9090909 40,34 C40,29.0909091 35.9090909,25 31,25 C26.0909091,25 22,29.0909091 22,34 C22,38.9090909 26.0909091,43 31,43 Z M31,28.2727273 C34.1090909,28.2727273 36.7272727,30.8909091 36.7272727,34 C36.7272727,37.1090909 34.1090909,39.7272727 31,39.7272727 C27.8909091,39.7272727 25.2727273,37.1090909 25.2727273,34 C25.2727273,30.8909091 27.8909091,28.2727273 31,28.2727273 Z" id="Shape" fill="#FF9980"></path>
                </g>
            </g>
        </g>
    </g>
</svg>